<svg id="visual" viewBox="0 0 900 900" width="900" height="900" xmlns="http://www.w3.org/2000/svg" xmlns:xlink="http://www.w3.org/1999/xlink" version="1.1"><g transform="translate(414.0587390930182 408.7014291258664)"><path d="M318.8 -347.9C396.6 -314.7 431.7 -198.5 428.5 -93.8C425.2 11 383.7 104.2 336.5 202.2C289.4 300.2 236.7 402.9 157 432.3C77.3 461.7 -29.4 417.8 -125.3 371.3C-221.2 324.7 -306.3 275.3 -338.8 203.3C-371.3 131.2 -351.1 36.4 -345.1 -71.8C-339.1 -180.1 -347.3 -301.9 -292.1 -339C-237 -376.2 -118.5 -328.7 1 -329.9C120.5 -331.1 241 -381 318.8 -347.9" fill="none" stroke="#f48024" stroke-width="30"></path></g></svg>