<svg id="visual" viewBox="0 0 900 900" width="900" height="900" xmlns="http://www.w3.org/2000/svg" xmlns:xlink="http://www.w3.org/1999/xlink" version="1.1"><g transform="translate(418.5540595239818 428.27658474045865)"><path d="M236.6 -314.8C310.1 -272.2 375.7 -207.8 409.4 -127.5C443.2 -47.2 445.1 49 406 120.3C366.9 191.6 286.8 238 212.3 285.8C137.8 333.6 68.9 382.8 -20.7 411.3C-110.2 439.7 -220.4 447.4 -278.6 394.3C-336.8 341.2 -342.9 227.3 -353.6 130.1C-364.3 32.9 -379.5 -47.7 -368.1 -131C-356.8 -214.4 -318.9 -300.6 -253.1 -345.7C-187.3 -390.8 -93.7 -394.9 -6.1 -386.5C81.5 -378.2 163 -357.4 236.6 -314.8" fill="none" stroke="#f48024" stroke-width="30"></path></g></svg>