<svg id="visual" viewBox="0 0 900 900" width="900" height="900" xmlns="http://www.w3.org/2000/svg" xmlns:xlink="http://www.w3.org/1999/xlink" version="1.1"><g transform="translate(445.1928233818553 491.83198057976733)"><path d="M251.1 -337.1C335.3 -284.5 420.1 -224.3 434.1 -148.7C448.1 -73.2 391.2 17.7 346.5 99.3C301.7 180.8 269 253 213.3 301.6C157.5 350.1 78.8 375.1 -2.2 378C-83.1 381 -166.1 362 -245.9 321.3C-325.6 280.5 -402 218 -421.3 141C-440.7 64.1 -402.9 -27.3 -378.3 -129C-353.7 -230.8 -342.2 -342.9 -281.3 -403.2C-220.4 -463.4 -110.2 -471.7 -13.4 -453.3C83.5 -434.9 166.9 -389.8 251.1 -337.1" fill="none" stroke="#f48024" stroke-width="30"></path></g></svg>